<svg width="32.000000" height="32.000000" viewBox="0 0 32 32" fill="none" xmlns="http://www.w3.org/2000/svg" xmlns:xlink="http://www.w3.org/1999/xlink">
	<desc>
			Created with Pixso.
	</desc>
	<defs>
		<clipPath id="clip1_324">
			<rect id="Frame" width="32.000000" height="32.000000" fill="white" fill-opacity="0"/>
		</clipPath>
	</defs>
	<rect id="Frame" width="32.000000" height="32.000000" fill="#FFFFFF" fill-opacity="0"/>
	<g clip-path="url(#clip1_324)">
		<path id="Vector" d="M29.95 12.52C29.83 12.4 29.67 12.34 29.51 12.34C26.21 12.37 22.91 13.81 20.46 16.29C18.03 18.75 16.65 22 16.63 25.26L15.92 25.97L15.92 19.98C18.18 17.7 19.56 14.59 19.81 11.22C19.81 11.16 19.8 11.09 19.78 11.04C19.76 10.98 19.73 10.92 19.69 10.88C19.65 10.83 19.6 10.79 19.55 10.76C19.49 10.74 19.43 10.72 19.37 10.72C19.12 10.7 18.89 10.89 18.87 11.15C18.67 13.95 17.63 16.56 15.92 18.59L15.92 6.94C15.92 6.81 15.87 6.69 15.78 6.6C15.69 6.52 15.57 6.47 15.45 6.47C15.32 6.47 15.21 6.52 15.12 6.6C15.03 6.69 14.98 6.81 14.98 6.94L14.98 18.46C13.09 16.2 12.01 13.21 11.99 10.08C11.97 6.68 13.2 3.41 15.39 1.06C17.4 3.16 18.63 5.97 18.87 9.03C18.89 9.29 19.11 9.48 19.37 9.46C19.43 9.46 19.49 9.44 19.55 9.41C19.6 9.38 19.65 9.35 19.69 9.3C19.73 9.25 19.76 9.2 19.78 9.14C19.8 9.08 19.81 9.02 19.8 8.96C19.54 5.57 18.13 2.45 15.83 0.18C15.71 0.06 15.55 0 15.38 0C15.3 0 15.22 0.01 15.14 0.04C15.06 0.08 14.99 0.12 14.93 0.18C12.44 2.72 11.03 6.33 11.05 10.09C11.08 13.81 12.51 17.35 14.98 19.85L14.98 22.49L12.1 19.6C12.07 17.16 11.01 14.73 9.17 12.92C7.35 11.12 4.91 10.09 2.48 10.09L2.43 10.09C2.36 10.09 2.28 10.1 2.21 10.13C2.14 10.16 2.08 10.21 2.02 10.26C1.97 10.31 1.93 10.38 1.9 10.45C1.87 10.52 1.86 10.6 1.86 10.67C1.88 13.12 2.94 15.56 4.78 17.37C6.59 19.15 8.97 20.17 11.37 20.2L14.9 23.73C14.92 23.76 14.95 23.78 14.98 23.8L14.98 30.39L14.13 29.55C14.11 27.5 13.4 25.43 12.11 23.71C12.03 23.61 11.92 23.55 11.8 23.53C11.68 23.51 11.55 23.55 11.45 23.62C11.36 23.69 11.29 23.8 11.27 23.93C11.25 24.05 11.28 24.17 11.36 24.27C12.31 25.55 12.92 27.03 13.12 28.54L7.51 22.93C7.43 22.84 7.31 22.79 7.18 22.79C7.06 22.79 6.94 22.84 6.85 22.93C6.76 23.02 6.71 23.14 6.71 23.26C6.71 23.38 6.76 23.5 6.85 23.59L12.39 29.13C10.46 28.87 8.59 27.95 7.12 26.5C5.45 24.85 4.45 22.67 4.33 20.47C6.34 20.54 8.32 21.34 9.93 22.74C10.03 22.83 10.15 22.87 10.27 22.86C10.4 22.85 10.51 22.79 10.59 22.7C10.67 22.6 10.71 22.48 10.71 22.36C10.7 22.23 10.64 22.12 10.55 22.04C8.68 20.41 6.36 19.52 4.01 19.52L3.97 19.52C3.89 19.52 3.81 19.54 3.74 19.57C3.67 19.6 3.61 19.64 3.55 19.7C3.5 19.75 3.45 19.82 3.42 19.89C3.4 19.96 3.38 20.04 3.38 20.11C3.4 22.69 4.53 25.26 6.46 27.16C8.36 29.04 10.88 30.12 13.4 30.14L15.12 31.86C15.18 31.92 15.27 31.97 15.36 31.99C15.45 32 15.54 31.99 15.63 31.96C15.71 31.92 15.79 31.86 15.84 31.79C15.89 31.71 15.92 31.62 15.92 31.53L15.92 27.3L17.21 26.01C20.1 26 22.97 24.92 25.31 22.98C25.4 22.9 25.46 22.78 25.47 22.66C25.48 22.53 25.45 22.41 25.37 22.32C25.29 22.22 25.17 22.16 25.05 22.15C24.92 22.14 24.8 22.18 24.71 22.25C22.8 23.84 20.53 24.8 18.19 25.02L25.76 17.46C25.84 17.37 25.89 17.26 25.89 17.13C25.89 17.01 25.84 16.89 25.75 16.8C25.67 16.71 25.55 16.66 25.42 16.66C25.3 16.66 25.18 16.71 25.09 16.8L17.62 24.27C17.88 21.6 19.12 18.98 21.12 16.95C23.32 14.72 26.25 13.4 29.19 13.28C29.13 15.97 28.08 18.62 26.21 20.78C26.13 20.87 26.09 20.99 26.1 21.12C26.11 21.24 26.17 21.36 26.26 21.44C26.35 21.52 26.48 21.56 26.6 21.55C26.72 21.54 26.84 21.48 26.92 21.39C29.01 18.98 30.15 15.98 30.13 12.96C30.13 12.87 30.12 12.79 30.08 12.72C30.05 12.64 30.01 12.58 29.95 12.52ZM5.44 16.7C3.87 15.15 2.92 13.11 2.81 11.03C4.88 11.12 6.94 12.04 8.51 13.59C9.92 14.97 10.82 16.75 11.08 18.59L5.82 13.32C5.73 13.23 5.61 13.18 5.48 13.18C5.36 13.18 5.24 13.23 5.15 13.32C5.06 13.41 5.02 13.53 5.02 13.65C5.02 13.78 5.06 13.9 5.15 13.98L10.35 19.19C8.55 18.93 6.81 18.06 5.44 16.7Z" fill="#009EFE" fill-opacity="1.000000" fill-rule="nonzero"/>
	</g>
</svg>
