<svg width="32.000000" height="32.000000" viewBox="0 0 32 32" fill="none" xmlns="http://www.w3.org/2000/svg" xmlns:xlink="http://www.w3.org/1999/xlink">
	<desc>
			Created with Pixso.
	</desc>
	<defs>
		<clipPath id="clip1_327">
			<rect id="Frame" width="32.000000" height="32.000000" fill="white" fill-opacity="0"/>
		</clipPath>
	</defs>
	<rect id="Frame" width="32.000000" height="32.000000" fill="#FFFFFF" fill-opacity="0"/>
	<g clip-path="url(#clip1_327)">
		<path id="Vector" d="M26.34 9.67L28.25 9.67C28.77 9.67 29.21 10.1 29.21 10.63L29.21 12.93C29.21 14.97 27.8 16.68 25.9 17.16" stroke="#009EFE" stroke-opacity="1.000000" stroke-width="1.000000" stroke-linejoin="round" stroke-linecap="round"/>
		<path id="Vector" d="M26.34 7.35L28.25 7.35C30.05 7.35 31.53 8.82 31.53 10.63L31.53 12.93C31.53 16.61 28.53 19.61 24.85 19.61L24.55 19.61" stroke="#009EFE" stroke-opacity="1.000000" stroke-width="1.000000" stroke-linejoin="round" stroke-linecap="round"/>
		<path id="Vector" d="M9.49 15.79C11.69 15.79 13.47 17.57 13.47 19.77L13.47 21.67L11.57 21.67C9.38 21.67 7.59 19.88 7.59 17.69L7.59 15.79L9.49 15.79Z" stroke="#009EFE" stroke-opacity="1.000000" stroke-width="1.000000" stroke-linejoin="round"/>
		<path id="Vector" d="M20.85 19C21.36 18.16 21.66 17.17 21.66 16.12L21.66 13.48L19.02 13.48C15.95 13.48 13.47 15.96 13.47 19.02L13.47 21.67L16.11 21.67C17.45 21.67 18.68 21.19 19.64 20.4" stroke="#009EFE" stroke-opacity="1.000000" stroke-width="1.000000" stroke-linejoin="round" stroke-linecap="round"/>
		<path id="Vector" d="M6.61 21.67C4.06 20.31 2.33 17.62 2.33 14.53L2.33 6.63C2.33 5.94 2.89 5.38 3.58 5.38L6.58 5.38" stroke="#009EFE" stroke-opacity="1.000000" stroke-width="1.000000" stroke-linejoin="round" stroke-linecap="round"/>
		<path id="Vector" d="M8.46 5.38L25.09 5.38C25.78 5.38 26.34 5.94 26.34 6.63L26.34 14.53C26.34 17.62 24.61 20.31 22.06 21.67" stroke="#009EFE" stroke-opacity="1.000000" stroke-width="1.000000" stroke-linejoin="round" stroke-linecap="round"/>
		<path id="Vector" d="M1.97 21.67C1.14 21.67 0.46 22.34 0.46 23.17C0.46 24.01 1.14 24.68 1.97 24.68L26.7 24.68C27.53 24.68 28.2 24.01 28.2 23.17C28.2 22.34 27.53 21.67 26.7 21.67L1.97 21.67Z" stroke="#009EFE" stroke-opacity="1.000000" stroke-width="1.000000" stroke-linejoin="round"/>
		<path id="Vector" d="M25.76 24.68C25.62 25.78 24.68 26.61 23.57 26.61L5.09 26.61C3.98 26.61 3.05 25.78 2.9 24.68" stroke="#009EFE" stroke-opacity="1.000000" stroke-width="1.000000" stroke-linejoin="round" stroke-linecap="round"/>
		<path id="Vector" d="M2.33 7.66C6.33 7.66 6.33 10.16 10.33 10.16C14.33 10.16 14.33 7.66 18.33 7.66C22.34 7.66 22.34 10.16 26.34 10.16" stroke="#009EFE" stroke-opacity="1.000000" stroke-width="1.000000" stroke-linejoin="round" stroke-linecap="round"/>
	</g>
</svg>
