<svg width="32.000000" height="32.000000" viewBox="0 0 32 32" fill="none" xmlns="http://www.w3.org/2000/svg" xmlns:xlink="http://www.w3.org/1999/xlink">
	<desc>
			Created with Pixso.
	</desc>
	<defs>
		<clipPath id="clip1_342">
			<rect id="Frame" width="32.000000" height="32.000000" fill="white" fill-opacity="0"/>
		</clipPath>
	</defs>
	<rect id="Frame" width="32.000000" height="32.000000" fill="#FFFFFF" fill-opacity="0"/>
	<g clip-path="url(#clip1_342)">
		<path id="Vector" d="M26.39 14.8L28.23 25.33C28.23 25.35 28.24 25.39 28.2 25.44C28.16 25.49 28.12 25.49 28.1 25.49L24.02 25.49M21.53 11.19L25.65 11.19C25.72 11.19 25.77 11.24 25.78 11.3L26.07 12.95M24.52 28.78L28.1 28.78C28.6 28.78 29.09 28.67 29.55 28.46C30 28.25 30.4 27.94 30.72 27.56C31.04 27.17 31.28 26.73 31.41 26.24C31.54 25.76 31.56 25.26 31.47 24.76L29.03 10.73C28.89 9.94 28.47 9.22 27.86 8.7C27.24 8.18 26.46 7.9 25.65 7.9L20.88 7.9" stroke="#009EFE" stroke-opacity="1.000000" stroke-width="1.000000" stroke-linejoin="round"/>
		<path id="Vector" d="M4.39 23.55L7.02 8.48C7.23 7.29 8.26 6.41 9.48 6.41L18.6 6.41C19.81 6.41 20.85 7.29 21.06 8.48L24.49 28.16C24.76 29.69 23.58 31.09 22.03 31.09L6.04 31.09C4.49 31.09 3.32 29.69 3.58 28.16L4.07 25.37" stroke="#009EFE" stroke-opacity="1.000000" stroke-width="1.000000" stroke-linejoin="round" stroke-linecap="round"/>
		<path id="Vector" d="M5.62 16.52L0.46 11.37L3.57 8.26L6.54 11.24" stroke="#009EFE" stroke-opacity="1.000000" stroke-width="1.000000" stroke-linejoin="round" stroke-linecap="round"/>
		<path id="Vector" d="M5.33 18.16C6.35 17.54 7.5 17.01 9.51 17.01C14.21 17.01 14.21 19.94 18.91 19.94C20.78 19.94 21.9 19.48 22.88 18.92" stroke="#009EFE" stroke-opacity="1.000000" stroke-width="1.000000" stroke-linejoin="round" stroke-linecap="round"/>
		<path id="Vector" d="M13.51 0.9C12.71 0.9 12.05 1.56 12.05 2.37L12.05 4.95C12.05 5.76 12.71 6.41 13.51 6.41L14.56 6.41C15.37 6.41 16.02 5.76 16.02 4.95L16.02 2.37C16.02 1.56 15.37 0.9 14.56 0.9L13.51 0.9Z" stroke="#009EFE" stroke-opacity="1.000000" stroke-width="1.000000" stroke-linejoin="round"/>
		<path id="Vector" d="M11.02 11.11C10.33 11.11 9.77 10.55 9.77 9.85C9.77 9.16 10.33 8.6 11.02 8.6L17.05 8.6C17.75 8.6 18.31 9.16 18.31 9.85C18.31 10.55 17.75 11.11 17.05 11.11L11.02 11.11Z" stroke="#009EFE" stroke-opacity="1.000000" stroke-width="1.000000" stroke-linejoin="round"/>
		<path id="Vector" d="M12.09 22.88C11.5 22.88 11.02 22.4 11.02 21.81L11.02 11.11L17.05 11.11L17.05 21.81C17.05 22.4 16.57 22.88 15.98 22.88L12.09 22.88Z" stroke="#009EFE" stroke-opacity="1.000000" stroke-width="1.000000" stroke-linejoin="round"/>
		<path id="Vector" d="M21.08 8.6L7 8.6" stroke="#009EFE" stroke-opacity="1.000000" stroke-width="1.000000" stroke-linejoin="round" stroke-linecap="round"/>
	</g>
</svg>
