<svg width="51" height="51" viewBox="0 0 51 51" fill="none" xmlns="http://www.w3.org/2000/svg">
<path d="M2.125 25.5C2.125 12.5906 12.5906 2.125 25.5 2.125C38.4094 2.125 48.875 12.5906 48.875 25.5C48.875 38.4094 38.4094 48.875 25.5 48.875C12.5906 48.875 2.125 38.4094 2.125 25.5ZM25.5 5.3125C20.1459 5.3125 15.0112 7.43939 11.2253 11.2253C7.43939 15.0112 5.3125 20.1459 5.3125 25.5C5.3125 30.8541 7.43939 35.9888 11.2253 39.7747C15.0112 43.5606 20.1459 45.6875 25.5 45.6875C30.8541 45.6875 35.9888 43.5606 39.7747 39.7747C43.5606 35.9888 45.6875 30.8541 45.6875 25.5C45.6875 20.1459 43.5606 15.0112 39.7747 11.2253C35.9888 7.43939 30.8541 5.3125 25.5 5.3125Z" fill="white"/>
<path fill-rule="evenodd" clip-rule="evenodd" d="M11.2253 11.2253C15.0112 7.43939 20.1459 5.3125 25.5 5.3125C30.8541 5.3125 35.9888 7.43939 39.7747 11.2253C43.5606 15.0112 45.6875 20.1459 45.6875 25.5C45.6875 30.8541 43.5606 35.9888 39.7747 39.7747C35.9888 43.5606 30.8541 45.6875 25.5 45.6875C20.1459 45.6875 15.0112 43.5606 11.2253 39.7747C7.43939 35.9888 5.3125 30.8541 5.3125 25.5C5.3125 20.1459 7.43939 15.0112 11.2253 11.2253ZM20.1875 17.884V33.116V33.1181C20.1878 33.3087 20.2394 33.4957 20.3368 33.6595C20.4342 33.8233 20.5739 33.9578 20.7412 34.0491C20.9085 34.1404 21.0973 34.1849 21.2878 34.1782C21.4782 34.1714 21.6633 34.1135 21.8238 34.0106L33.6727 26.3946C33.8228 26.2985 33.9462 26.1662 34.0317 26.0098C34.1172 25.8535 34.1621 25.6782 34.1621 25.5C34.1621 25.3218 34.1172 25.1465 34.0317 24.9901C33.9462 24.8338 33.8228 24.7015 33.6727 24.6054L21.8238 16.9915C21.6633 16.8886 21.4782 16.8307 21.2878 16.8239C21.0973 16.8171 20.9085 16.8617 20.7412 16.953C20.5739 17.0442 20.4342 17.1788 20.3368 17.3426C20.2394 17.5064 20.1878 17.6934 20.1875 17.884Z" fill="white"/>
</svg>
