<svg width="137.000000" height="24.000000" viewBox="0 0 137 24" fill="none" xmlns="http://www.w3.org/2000/svg" xmlns:xlink="http://www.w3.org/1999/xlink">
	<desc>
			Created with Pixso.
	</desc>
	<defs/>
	<path id="Star 1" d="M12 0L9.3 8.29L0.58 8.29L7.64 13.41L4.94 21.7L12 16.58L19.05 21.7L16.35 13.41L23.41 8.29L14.69 8.29L12 0Z" fill="#FFBD3D" fill-opacity="1.000000" fill-rule="nonzero"/>
	<path id="Star 2" d="M40 0L37.3 8.29L28.58 8.29L35.64 13.41L32.94 21.7L40 16.58L47.05 21.7L44.36 13.41L51.41 8.29L42.69 8.29L40 0Z" fill="#FFBD3D" fill-opacity="1.000000" fill-rule="nonzero"/>
	<path id="Star 3" d="M68 0L65.3 8.29L56.58 8.29L63.64 13.41L60.94 21.7L68 16.58L75.05 21.7L72.36 13.41L79.41 8.29L70.69 8.29L68 0Z" fill="#FFBD3D" fill-opacity="1.000000" fill-rule="nonzero"/>
	<path id="Star 4" d="M96 0L93.3 8.29L84.58 8.29L91.64 13.41L88.94 21.7L96 16.58L103.05 21.7L100.36 13.41L107.41 8.29L98.69 8.29L96 0Z" fill="#FFBD3D" fill-opacity="1.000000" fill-rule="nonzero"/>
	<path id="Star 5" d="M124 0L121.3 8.29L112.58 8.29L119.64 13.41L116.94 21.7L124 16.58L131.05 21.7L128.36 13.41L135.41 8.29L126.69 8.29L124 0Z" fill="#FFBD3D" fill-opacity="1.000000" fill-rule="nonzero"/>
</svg>
